<svg xmlns="http://www.w3.org/2000/svg" viewBox="0 0 716.52 125.77"><defs><style>.d{fill:#e8571f;}.e{fill:#b3b2b2;}</style></defs><g id="a"></g><g id="b"><g id="c"><g><path class="e" d="M0,4.62H18.72l22.06,58.86c1.43,3.88,2.64,7.28,3.62,10.19,.98,2.92,1.84,5.66,2.59,8.2,1.86-6.16,3.8-12.19,5.81-18.08,.27-.74,.45-1.25,.56-1.51L76.78,0l24.69,63.48c1.17,3.08,2.27,6.16,3.3,9.24,1.04,3.08,2,6.19,2.91,9.32,.53-2.39,1.25-5.02,2.15-7.88,.9-2.87,2.07-6.26,3.5-10.2L135.24,4.62h18.88l-45.16,121.15-26.6-66.51c-1.17-2.97-2.23-5.83-3.19-8.56-.96-2.73-1.81-5.32-2.55-7.77-.9,3.13-1.81,6.07-2.71,8.8-.9,2.74-1.83,5.35-2.79,7.85l-26.12,66.19L0,4.62Z"></path><path class="d" d="M286.58,63.16c0,8.28-1.55,16.12-4.66,23.5-3.11,7.38-7.63,13.97-13.58,19.75-6,5.79-12.77,10.22-20.31,13.3-7.54,3.08-15.45,4.62-23.74,4.62s-16.4-1.55-24.01-4.66c-7.62-3.11-14.35-7.53-20.19-13.26-5.95-5.79-10.46-12.35-13.54-19.67-3.08-7.33-4.62-15.19-4.62-23.58s1.54-16.19,4.62-23.58c3.08-7.38,7.59-13.99,13.54-19.83,5.95-5.79,12.69-10.2,20.23-13.22s15.53-4.54,23.97-4.54,16.34,1.51,23.85,4.54,14.24,7.43,20.19,13.22c5.95,5.89,10.47,12.54,13.58,19.95s4.66,15.23,4.66,23.46Z"></path><path class="e" d="M308.32,121.23V4.62h18.96V104.26h42.37v16.96h-61.33Z"></path><path class="e" d="M413.78,20.71V121.23h-18.96V20.71h-30.98V4.62h80.76V20.71h-30.82Z"></path><path class="e" d="M476.86,69.06v52.17h-17.76V4.62h26.44c7.75,0,13.77,.51,18.04,1.51,4.27,1.01,7.92,2.68,10.95,5.02,3.61,2.82,6.4,6.45,8.36,10.91,1.96,4.46,2.95,9.35,2.95,14.66,0,9.35-2.26,16.66-6.77,21.94-4.51,5.28-11.18,8.46-19.99,9.52l40.14,53.05h-21.43l-38.79-52.17h-2.15Zm1.2-14.74h3.42c10.04,0,16.7-1.17,19.99-3.5,3.29-2.34,4.94-6.48,4.94-12.43,0-6.42-1.77-10.95-5.3-13.58-3.53-2.63-10.08-3.94-19.63-3.94h-3.42V54.32Z"></path><path class="e" d="M550.77,121.23V4.62h18.96V121.23h-18.96Z"></path><path class="e" d="M716.52,63.16c0,8.28-1.55,16.12-4.66,23.5-3.11,7.38-7.63,13.97-13.58,19.75-6,5.79-12.77,10.22-20.31,13.3-7.54,3.08-15.45,4.62-23.74,4.62s-16.4-1.55-24.01-4.66c-7.62-3.11-14.35-7.53-20.19-13.26-5.95-5.79-10.46-12.35-13.54-19.67-3.08-7.33-4.62-15.19-4.62-23.58s1.54-16.19,4.62-23.58c3.08-7.38,7.59-13.99,13.54-19.83,5.95-5.79,12.69-10.2,20.23-13.22s15.53-4.54,23.97-4.54,16.34,1.51,23.85,4.54,14.24,7.43,20.19,13.22c5.95,5.89,10.47,12.54,13.58,19.95s4.66,15.23,4.66,23.46Zm-19.75,0c0-5.89-1.08-11.5-3.23-16.81-2.15-5.31-5.24-10.04-9.28-14.18-3.93-4.09-8.48-7.23-13.66-9.44-5.18-2.2-10.63-3.3-16.37-3.3s-11.19,1.09-16.37,3.27c-5.18,2.18-9.78,5.34-13.82,9.48-4.04,4.09-7.12,8.79-9.24,14.1-2.12,5.31-3.19,10.94-3.19,16.88s1.06,11.47,3.19,16.73c2.12,5.26,5.2,9.96,9.24,14.1,4.03,4.14,8.63,7.3,13.78,9.48,5.15,2.18,10.62,3.27,16.41,3.27s11.08-1.09,16.21-3.27c5.12-2.18,9.73-5.34,13.82-9.48,4.04-4.14,7.13-8.85,9.28-14.14,2.15-5.28,3.23-10.84,3.23-16.69Z"></path></g></g></g></svg>